# xmcd
#
# Track frame offsets:
#	150
#	21769
#	40433
#	64054
#	89948
#	115672
#	139147
#	160192
#	179735
#
# Disc length: 2659 seconds
#
# Revision: 1
# Processed by: cddbd v1.5.2PL0 Copyright (c) Steve Scherf et al.
# Submitted via: audiograbber 1.83.01
#
DISCID=810a6109
DTITLE=The Jezabels - Prisoner (Bonus)
DYEAR=2011
DGENRE=Indie
TTITLE0=Easy To Love
TTITLE1=Endless Summer (Acoustic)
TTITLE2=Mace Spray (Live At Heaven)
TTITLE3=Long Highway (Live At Heaven)
TTITLE4=Hurt Me
TTITLE5=Trycolour (Live At Heaven)
TTITLE6=City Girls (Acoustic)
TTITLE7=A Little Piece (Live At Heaven)
TTITLE8=Disco Biscuit Love
EXTD=
EXTT0=
EXTT1=
EXTT2=
EXTT3=
EXTT4=
EXTT5=
EXTT6=
EXTT7=
EXTT8=
PLAYORDER=
